HIERARCHY
ROOT Hips
{
	OFFSET 0.000000 100.481300 0.000000
	CHANNELS 6 Xposition Yposition Zposition Xrotation Yrotation Zrotation 
	JOINT Spine
	{
		OFFSET -0.279200 12.230698 -2.892100
		CHANNELS 3 Xrotation Yrotation Zrotation
		JOINT Spine1
		{
			OFFSET -0.232667 10.192268 -1.242267
			CHANNELS 3 Xrotation Yrotation Zrotation
			JOINT Spine1_split
			{
				OFFSET -0.232667 10.192268 -1.242267
				CHANNELS 3 Xrotation Yrotation Zrotation
				JOINT Spine2
				{
					OFFSET -0.232667 10.192268 -1.242267
					CHANNELS 3 Xrotation Yrotation Zrotation
					JOINT Neck
					{
						OFFSET -0.418800 17.814194 8.416900
						CHANNELS 3 Xrotation Yrotation Zrotation
						JOINT Head
						{
							OFFSET 0.000000 7.031097 3.806800
							CHANNELS 3 Xrotation Yrotation Zrotation
							JOINT HeadTop_End
							{
								OFFSET 0.000000 24.646606 12.978600
								CHANNELS 3 Xrotation Yrotation Zrotation
								End Site
								{
									OFFSET 0.000000 0.000000 0.000000
								}
							}
						}
					}
					JOINT LeftShoulder
					{
						OFFSET 8.476499 7.247704 -3.868750
						CHANNELS 3 Xrotation Yrotation Zrotation
						JOINT LeftShoulder_split
						{
							OFFSET 8.476499 7.247704 -3.868750
							CHANNELS 3 Xrotation Yrotation Zrotation
							JOINT LeftArm
							{
								OFFSET 9.308998 -2.777710 0.208600
								CHANNELS 3 Xrotation Yrotation Zrotation
								JOINT LeftForeArm
								{
									OFFSET 29.972298 0.000000 0.000000
									CHANNELS 3 Xrotation Yrotation Zrotation
									JOINT LeftHand
									{
										OFFSET 26.026505 0.000000 0.000000
										CHANNELS 3 Xrotation Yrotation Zrotation
										JOINT LeftHandThumb1
										{
											OFFSET 12.240501 -7.147949 9.207150
											CHANNELS 3 Xrotation Yrotation Zrotation
											JOINT LeftHandThumb2
											{
												OFFSET 4.138618 -2.389435 2.389433
												CHANNELS 3 Xrotation Yrotation Zrotation
												JOINT LeftHandThumb3
												{
													OFFSET 2.726913 -1.574387 1.574386
													CHANNELS 3 Xrotation Yrotation Zrotation
													JOINT LeftHandThumb4
													{
														OFFSET 3.941010 -2.275345 2.275342
														CHANNELS 3 Xrotation Yrotation Zrotation
														End Site
														{
															OFFSET 0.000000 0.000000 0.000000
														}
													}
												}
											}
										}
										JOINT LeftHandIndex1
										{
											OFFSET 24.424698 -1.985611 5.953459
											CHANNELS 3 Xrotation Yrotation Zrotation
											JOINT LeftHandIndex2
											{
												OFFSET 6.426697 0.000000 0.000000
												CHANNELS 3 Xrotation Yrotation Zrotation
												JOINT LeftHandIndex3
												{
													OFFSET 5.337898 0.000000 0.000000
													CHANNELS 3 Xrotation Yrotation Zrotation
													JOINT LeftHandIndex4
													{
														OFFSET 4.409401 0.000000 0.000000
														CHANNELS 3 Xrotation Yrotation Zrotation
														End Site
														{
															OFFSET 0.000000 0.000000 0.000000
														}
													}
												}
											}
										}
										JOINT LeftHandMiddle1
										{
											OFFSET 23.810104 0.000000 0.000000
											CHANNELS 3 Xrotation Yrotation Zrotation
											JOINT LeftHandMiddle2
											{
												OFFSET 7.176498 0.000000 0.000000
												CHANNELS 3 Xrotation Yrotation Zrotation
												JOINT LeftHandMiddle3
												{
													OFFSET 6.774902 0.000000 0.000000
													CHANNELS 3 Xrotation Yrotation Zrotation
													JOINT LeftHandMiddle4
													{
														OFFSET 5.403328 0.000000 0.000000
														CHANNELS 3 Xrotation Yrotation Zrotation
														End Site
														{
															OFFSET 0.000000 0.000000 0.000000
														}
													}
												}
											}
										}
										JOINT LeftHandRing1
										{
											OFFSET 22.908401 -0.839279 -6.020567
											CHANNELS 3 Xrotation Yrotation Zrotation
											JOINT LeftHandRing2
											{
												OFFSET 6.337502 0.000000 0.000000
												CHANNELS 3 Xrotation Yrotation Zrotation
												JOINT LeftHandRing3
												{
													OFFSET 5.779297 0.000000 0.000000
													CHANNELS 3 Xrotation Yrotation Zrotation
													JOINT LeftHandRing4
													{
														OFFSET 4.965698 0.000000 0.000000
														CHANNELS 3 Xrotation Yrotation Zrotation
														End Site
														{
															OFFSET 0.000000 0.000000 0.000000
														}
													}
												}
											}
										}
										JOINT LeftHandPinky1
										{
											OFFSET 20.037003 -1.530319 -10.950146
											CHANNELS 3 Xrotation Yrotation Zrotation
											JOINT LeftHandPinky2
											{
												OFFSET 5.254700 0.000000 0.000000
												CHANNELS 3 Xrotation Yrotation Zrotation
												JOINT LeftHandPinky3
												{
													OFFSET 4.810204 0.000000 0.000000
													CHANNELS 3 Xrotation Yrotation Zrotation
													JOINT LeftHandPinky4
													{
														OFFSET 3.647202 0.000000 0.000000
														CHANNELS 3 Xrotation Yrotation Zrotation
														End Site
														{
															OFFSET 0.000000 0.000000 0.000000
														}
													}
												}
											}
										}
									}
								}
							}
						}
					}
					JOINT RightShoulder
					{
						OFFSET -7.570500 7.247704 -3.868750
						CHANNELS 3 Xrotation Yrotation Zrotation
						JOINT RightShoulder_split
						{
							OFFSET -7.570500 7.247704 -3.868750
							CHANNELS 3 Xrotation Yrotation Zrotation
							JOINT RightArm
							{
								OFFSET -9.308998 -2.777710 0.208500
								CHANNELS 3 Xrotation Yrotation Zrotation
								JOINT RightForeArm
								{
									OFFSET -29.972300 0.000000 0.000000
									CHANNELS 3 Xrotation Yrotation Zrotation
									JOINT RightHand
									{
										OFFSET -26.026505 0.000000 0.000000
										CHANNELS 3 Xrotation Yrotation Zrotation
										JOINT RightHandThumb1
										{
											OFFSET -12.240601 -7.148026 9.207092
											CHANNELS 3 Xrotation Yrotation Zrotation
											JOINT RightHandThumb2
											{
												OFFSET -4.138618 -2.389435 2.389433
												CHANNELS 3 Xrotation Yrotation Zrotation
												JOINT RightHandThumb3
												{
													OFFSET -2.726974 -1.574417 1.574421
													CHANNELS 3 Xrotation Yrotation Zrotation
													JOINT RightHandThumb4
													{
														OFFSET -3.941010 -2.275345 2.275343
														CHANNELS 3 Xrotation Yrotation Zrotation
														End Site
														{
															OFFSET 0.000000 0.000000 0.000000
														}
													}
												}
											}
										}
										JOINT RightHandIndex1
										{
											OFFSET -24.424698 -1.985657 5.953444
											CHANNELS 3 Xrotation Yrotation Zrotation
											JOINT RightHandIndex2
											{
												OFFSET -6.426697 0.000000 0.000000
												CHANNELS 3 Xrotation Yrotation Zrotation
												JOINT RightHandIndex3
												{
													OFFSET -5.337898 0.000000 0.000000
													CHANNELS 3 Xrotation Yrotation Zrotation
													JOINT RightHandIndex4
													{
														OFFSET -4.409401 0.000000 0.000000
														CHANNELS 3 Xrotation Yrotation Zrotation
														End Site
														{
															OFFSET 0.000000 0.000000 0.000000
														}
													}
												}
											}
										}
										JOINT RightHandMiddle1
										{
											OFFSET -23.810097 0.000000 0.000000
											CHANNELS 3 Xrotation Yrotation Zrotation
											JOINT RightHandMiddle2
											{
												OFFSET -7.176498 0.000000 0.000000
												CHANNELS 3 Xrotation Yrotation Zrotation
												JOINT RightHandMiddle3
												{
													OFFSET -6.774902 0.000000 0.000000
													CHANNELS 3 Xrotation Yrotation Zrotation
													JOINT RightHandMiddle4
													{
														OFFSET -5.403328 0.000000 0.000000
														CHANNELS 3 Xrotation Yrotation Zrotation
														End Site
														{
															OFFSET 0.000000 0.000000 0.000000
														}
													}
												}
											}
										}
										JOINT RightHandRing1
										{
											OFFSET -22.908302 -0.839325 -6.020576
											CHANNELS 3 Xrotation Yrotation Zrotation
											JOINT RightHandRing2
											{
												OFFSET -6.337502 0.000000 0.000000
												CHANNELS 3 Xrotation Yrotation Zrotation
												JOINT RightHandRing3
												{
													OFFSET -5.779297 0.000000 0.000000
													CHANNELS 3 Xrotation Yrotation Zrotation
													JOINT RightHandRing4
													{
														OFFSET -4.965698 0.000000 0.000000
														CHANNELS 3 Xrotation Yrotation Zrotation
														End Site
														{
															OFFSET 0.000000 0.000000 0.000000
														}
													}
												}
											}
										}
										JOINT RightHandPinky1
										{
											OFFSET -20.037003 -1.530334 -10.950259
											CHANNELS 3 Xrotation Yrotation Zrotation
											JOINT RightHandPinky2
											{
												OFFSET -5.254700 0.000000 0.000000
												CHANNELS 3 Xrotation Yrotation Zrotation
												JOINT RightHandPinky3
												{
													OFFSET -4.810204 0.000000 0.000000
													CHANNELS 3 Xrotation Yrotation Zrotation
													JOINT RightHandPinky4
													{
														OFFSET -3.647202 0.000000 0.000000
														CHANNELS 3 Xrotation Yrotation Zrotation
														End Site
														{
															OFFSET 0.000000 0.000000 0.000000
														}
													}
												}
											}
										}
									}
								}
							}
						}
					}
				}
			}
		}
	}
	JOINT LeftUpLeg
	{
		OFFSET 15.427100 -6.655098 0.678600
		CHANNELS 3 Xrotation Yrotation Zrotation
		JOINT LeftLeg
		{
			OFFSET 4.081073 -39.591068 13.024000
			CHANNELS 3 Xrotation Yrotation Zrotation
			JOINT LeftFoot
			{
				OFFSET -4.081074 -37.707932 -15.979700
				CHANNELS 3 Xrotation Yrotation Zrotation
				JOINT LeftToeBase
				{
					OFFSET 5.346399 -15.068900 20.645000
					CHANNELS 3 Xrotation Yrotation Zrotation
					JOINT LeftToe_End
					{
						OFFSET 2.754700 0.931300 11.300900
						CHANNELS 3 Xrotation Yrotation Zrotation
						End Site
						{
							OFFSET 0.000000 0.000000 0.000000
						}
					}
				}
			}
		}
	}
	JOINT RightUpLeg
	{
		OFFSET -15.569500 -6.655098 0.678600
		CHANNELS 3 Xrotation Yrotation Zrotation
		JOINT RightLeg
		{
			OFFSET -4.081825 -39.591045 13.023800
			CHANNELS 3 Xrotation Yrotation Zrotation
			JOINT RightFoot
			{
				OFFSET 4.081824 -37.707954 -15.979600
				CHANNELS 3 Xrotation Yrotation Zrotation
				JOINT RightToeBase
				{
					OFFSET -5.346400 -15.068900 20.645000
					CHANNELS 3 Xrotation Yrotation Zrotation
					JOINT RightToe_End
					{
						OFFSET -2.754700 0.931300 11.300900
						CHANNELS 3 Xrotation Yrotation Zrotation
						End Site
						{
							OFFSET 0.000000 0.000000 0.000000
						}
					}
				}
			}
		}
	}
}
MOTION
Frames: 4
Frame Time: 0.016667
0.665262 113.793152 4.697929 -89.648623 0.364862 0.607183 1.069109 -1.183161 1.068460 -0.317534 -2.434542 0.230484 0.000000 0.000000 0.000000 -0.303419 -2.418346 0.331942 -10.007549 0.108423 -1.808070 8.693211 -2.170253 1.510697 0.000000 0.000001 -0.000000 0.422250 -0.102939 -3.997469 0.000000 0.000000 0.000000 35.266562 -28.376677 -54.536957 0.000106 -80.459594 0.000127 -13.956463 -3.099376 -10.083742 6.590534 -4.958673 16.122643 7.178848 21.567333 2.147332 -3.980795 36.507501 21.975994 0.000004 0.000001 -0.000002 0.659524 4.932349 -26.024462 0.169785 1.401605 -13.813546 0.169802 1.401614 -13.813545 -0.000001 -0.000000 0.000001 1.376920 6.461952 -24.994169 0.169874 1.401972 -13.817107 0.169790 1.401616 -13.813568 0.000000 0.000002 -0.000000 2.098715 8.644292 -21.209674 0.169784 1.401616 -13.813545 0.169802 1.401624 -13.813544 -0.000002 0.000000 -0.000001 2.123426 10.735865 -14.817563 0.167497 1.392248 -13.719347 0.169810 1.401702 -13.814462 -0.000002 0.000002 -0.000001 0.672262 1.791889 13.905685 0.000000 0.000000 0.000000 39.524385 30.882069 33.636373 0.000155 101.353355 -0.000147 -34.912020 -9.308816 11.148386 -13.115371 7.814910 -0.093442 7.918272 -27.751663 -3.100768 -2.785627 -37.960696 -21.297244 0.000002 -0.000001 -0.000001 2.082841 12.897804 37.347454 0.497044 -2.095305 26.687135 0.497049 -2.095306 26.687151 0.000000 0.000000 0.000002 -4.321323 1.650212 38.533503 0.529969 -2.159510 27.573962 0.497627 -2.096480 26.703337 0.000000 -0.000002 0.000001 -1.394392 -1.262390 31.742013 0.254164 -1.518991 18.997013 0.249583 -1.505612 18.823339 0.000001 -0.000002 0.000001 0.189711 -3.422248 14.147213 0.162215 -1.219720 15.150960 0.162221 -1.219713 15.150961 -0.000001 -0.000000 0.000000 -5.334864 17.234505 20.138360 4.690902 6.914190 0.058312 29.756484 29.617842 -31.883180 -4.397729 -0.000004 0.000004 0.000000 -0.000001 0.000000 -6.050479 -16.576333 -14.297287 6.375965 -6.121192 -6.754544 38.577612 -30.102570 32.544963 -9.126068 0.000018 -0.000004 0.000000 -0.000002 0.000001 
0.668018 113.788956 4.705620 -89.647968 0.364716 0.604512 1.069981 -1.316424 1.071487 -0.267800 -2.803662 0.269861 0.000000 0.000000 0.000000 -0.275045 -2.540292 0.378853 -10.308410 0.108422 -1.848248 8.590532 -2.164041 1.438077 0.000000 0.000000 0.000000 0.286865 1.338428 -4.208840 0.000000 0.000000 0.000000 35.597396 -28.973929 -53.870679 0.000183 -80.449861 0.000183 -14.006709 -2.990138 -10.115707 6.590530 -4.958675 16.122643 7.178840 21.567337 2.147336 -3.980784 36.507505 21.975994 0.000000 0.000000 0.000000 0.659516 4.932350 -26.024455 0.169787 1.401608 -13.813544 0.169803 1.401616 -13.813548 -0.000002 -0.000003 0.000001 1.376915 6.461948 -24.994162 0.169875 1.401971 -13.817107 0.169790 1.401619 -13.813565 0.000001 0.000000 -0.000001 2.098708 8.644292 -21.209674 0.169782 1.401617 -13.813544 0.169804 1.401620 -13.813543 0.000002 0.000000 -0.000000 2.123419 10.735865 -14.817563 0.167498 1.392248 -13.719346 0.169807 1.401706 -13.814466 0.000000 -0.000003 -0.000000 0.632473 1.910004 13.900113 0.000000 0.000000 0.000000 39.216795 31.338458 32.961632 -0.000086 101.514008 0.000074 -32.241549 -5.778571 11.438760 -12.649689 7.487810 0.310923 7.918276 -27.751660 -3.100770 -2.801569 -37.397574 -21.178629 0.000004 0.000001 -0.000001 1.826888 12.388910 38.175662 0.531854 -2.163123 27.624068 0.490653 -2.082543 26.511755 0.000000 -0.000001 -0.000000 -4.275616 1.292273 39.774603 0.580787 -2.254087 28.893736 0.545542 -2.189060 27.984593 -0.000000 0.000001 0.000002 -1.400946 -1.500345 33.624311 0.307059 -1.664660 20.900886 0.301733 -1.650643 20.716691 0.000003 0.000000 -0.000002 0.245541 -3.624127 16.721708 0.221506 -1.420586 17.723395 0.221490 -1.420582 17.723395 0.000001 0.000000 0.000000 -5.313174 17.214315 20.157302 4.759005 6.932559 0.043047 29.765859 29.613347 -31.855319 -4.437281 -0.000016 -0.000014 0.000000 -0.000001 -0.000000 -6.071880 -16.573772 -14.295390 6.402294 -6.123449 -6.770104 38.547907 -30.108912 32.548023 -9.100860 0.000019 -0.000002 0.000000 -0.000000 0.000000 
0.664448 113.792175 4.715958 -89.647141 0.363703 0.607471 1.076691 -1.500807 1.070500 -0.122002 -3.167864 0.318245 0.000000 0.000000 0.000000 -0.192742 -2.885992 0.467763 -10.438607 0.101447 -1.869203 8.494237 -2.149575 1.244427 0.000000 0.000000 -0.000000 0.143295 2.780180 -4.408303 0.000000 0.000000 0.000000 35.798073 -29.342138 -53.527981 0.000172 -80.441160 0.000188 -13.903212 -3.035542 -10.126504 6.590534 -4.958676 16.122643 7.178843 21.567335 2.147337 -3.980790 36.507505 21.975989 -0.000001 0.000000 -0.000001 0.659520 4.932349 -26.024453 0.169784 1.401609 -13.813544 0.169804 1.401616 -13.813545 0.000001 -0.000000 0.000001 1.376920 6.461950 -24.994169 0.169872 1.401971 -13.817107 0.169788 1.401617 -13.813569 -0.000002 0.000001 -0.000002 2.098709 8.644292 -21.209674 0.169786 1.401616 -13.813541 0.169806 1.401622 -13.813544 0.000000 -0.000001 -0.000000 2.123426 10.735865 -14.817563 0.167498 1.392245 -13.719344 0.169803 1.401705 -13.814462 -0.000001 -0.000000 0.000001 0.595536 2.019714 13.895001 0.000000 0.000000 0.000000 37.989410 32.092296 32.256340 0.000297 101.960101 -0.000283 -30.034275 -3.162345 11.679200 -12.147816 7.137432 0.751210 7.918273 -27.751660 -3.100767 -2.820223 -36.790503 -21.051507 0.000005 -0.000000 0.000001 1.566996 11.835573 39.062200 0.570621 -2.235586 28.634248 0.483806 -2.068771 26.322670 0.000001 0.000000 -0.000001 -4.213785 0.910817 41.113473 0.638007 -2.354712 30.316761 0.599503 -2.287646 29.366084 -0.000000 -0.000002 0.000000 -1.397914 -1.756065 35.653984 0.369470 -1.819641 22.953759 0.363288 -1.804976 22.758216 -0.000001 0.000000 -0.000002 0.315876 -3.838717 19.498126 0.295443 -1.633927 20.497205 0.295439 -1.633918 20.497205 0.000002 0.000000 -0.000001 -5.308535 17.210422 20.161299 4.789973 6.939193 0.017747 29.811494 29.611551 -31.856453 -4.495505 0.000010 -0.000001 0.000001 0.000001 -0.000000 -6.081546 -16.571323 -14.272135 6.456136 -6.113625 -6.817314 38.438522 -30.148701 32.535244 -9.020928 0.000004 0.000017 0.000001 0.000002 -0.000000 
0.653227 113.791412 4.732956 -89.642224 0.345448 0.615775 1.024490 -1.620989 1.064966 -0.004332 -3.399447 0.363598 0.000000 0.000000 0.000000 -0.116509 -3.107312 0.517953 -10.409513 0.091392 -1.902495 8.391083 -2.126793 0.943354 -0.000000 0.000000 -0.000000 -0.087597 3.411968 -4.598579 0.000000 0.000000 0.000000 36.070243 -29.254721 -53.441616 0.000184 -80.534098 0.000195 -13.803851 -3.053165 -10.111803 6.590534 -4.958671 16.122644 7.178844 21.567333 2.147336 -3.980789 36.507505 21.975994 0.000000 -0.000002 -0.000001 0.659521 4.932352 -26.024453 0.169783 1.401608 -13.813544 0.169801 1.401618 -13.813546 -0.000000 -0.000001 -0.000000 1.376918 6.461953 -24.994169 0.169875 1.401975 -13.817107 0.169791 1.401622 -13.813570 0.000002 0.000001 0.000000 2.098714 8.644293 -21.209674 0.169787 1.401621 -13.813544 0.169803 1.401620 -13.813544 0.000002 -0.000000 -0.000001 2.123423 10.735865 -14.817563 0.167500 1.392244 -13.719347 0.169811 1.401701 -13.814465 0.000001 -0.000002 0.000000 0.552931 2.146240 13.889201 0.000000 0.000000 0.000000 36.351264 32.916222 31.673063 -0.000125 102.444587 0.000146 -28.112845 -0.954747 11.594350 -11.615838 6.768529 1.222987 7.918273 -27.751660 -3.100767 -2.841663 -36.146809 -20.917518 0.000002 0.000003 0.000001 1.309538 11.243910 39.995306 0.613124 -2.311663 29.705545 0.476590 -2.054136 26.122166 -0.000000 0.000000 0.000000 -4.134200 0.511807 42.534265 0.701398 -2.459825 31.825908 0.659299 -2.390725 30.831085 0.000001 -0.000000 -0.000000 -1.383345 -2.025845 37.806675 0.441693 -1.981422 25.130925 0.434539 -1.966118 24.923343 0.000000 0.000000 0.000001 0.401764 -4.062265 22.443199 0.385038 -1.855945 23.439087 0.385039 -1.855940 23.439095 0.000000 0.000000 0.000002 -5.304256 17.203894 20.178479 4.836551 6.968506 -0.015366 29.847653 29.612053 -31.865769 -4.542691 0.000017 -0.000020 0.000001 -0.000001 0.000000 -6.107515 -16.564780 -14.234548 6.542031 -6.098605 -6.890136 38.255435 -30.205412 32.512476 -8.894390 -0.000014 0.000004 0.000000 -0.000001 0.000000 
